<?xml version="1.0" encoding="utf-8"?>
<!-- Generator: Adobe Illustrator 21.1.0, SVG Export Plug-In . SVG Version: 6.00 Build 0)  -->
<svg version="1.1" id="Layer_1" xmlns="http://www.w3.org/2000/svg" xmlns:xlink="http://www.w3.org/1999/xlink" x="0px" y="0px"
	 viewBox="0 0 925.2 422.5" style="enable-background:new 0 0 925.2 422.5;" xml:space="preserve">
<style type="text/css">
	.st0{fill:none;stroke:#B3B3B3;stroke-width:14;stroke-miterlimit:10;}
	.st1{fill:none;stroke:#000000;stroke-miterlimit:10;}
	.st2{fill:#484B4D;}
	.st3{fill:#29ABE2;}
	.st4{fill:#009245;}
	.st5{fill:none;stroke:#000000;stroke-width:0.5;stroke-miterlimit:10;}
</style>
<title>Asset 1</title>
<g id="Layer_2">
	<g id="Layer_1-2">
		<line class="st0" x1="698" y1="59.4" x2="855.6" y2="59.4"/>
		<rect x="627.3" y="46.4" class="st1" width="257.7" height="126.8"/>
		<path class="st2" d="M26.1,221.5H5.9c-3.3,0-5.9,2.7-5.9,5.9v45.3c0,3.3,2.7,5.9,5.9,6H26c3.3,0,5.9-2.7,5.9-6v-45.3
			C32,224.2,29.3,221.6,26.1,221.5z M12.3,223.3c0-0.2,0.3-0.4,0.7-0.4h5.9c0.4,0,0.7,0.2,0.7,0.4v0.2c0,0.2-0.3,0.4-0.7,0.4H13
			c-0.4,0-0.7-0.2-0.7-0.4V223.3z M16.7,225.4c0,0.4-0.3,0.7-0.7,0.7s-0.7-0.3-0.7-0.7s0.3-0.7,0.7-0.7S16.7,225,16.7,225.4
			L16.7,225.4z M19.7,275.7c0,0.4-0.3,0.7-0.7,0.7h-5.9c-0.4,0-0.7-0.3-0.7-0.7v-0.4c0-0.4,0.3-0.7,0.7-0.7l0,0H19
			c0.4,0,0.7,0.3,0.7,0.7l0,0V275.7z M29.9,272.8h-28v-45.3h28V272.8z M2.2,227.5v45.3H1.8v-45.3L2.2,227.5L2.2,227.5z"/>
		<path class="st2" d="M114,194.1H58.9c-3,0-5.4,2.4-5.4,5.4v74.7c0,3,2.4,5.4,5.4,5.4H114c3,0,5.4-2.4,5.4-5.4v-74.7
			C119.4,196.5,117,194.1,114,194.1z M86.3,195.8c0.8,0,1.4,0.6,1.4,1.4s-0.6,1.4-1.4,1.4s-1.4-0.6-1.4-1.4
			C84.9,196.4,85.5,195.8,86.3,195.8L86.3,195.8L86.3,195.8z M90.6,275.8c0,0.4-0.3,0.8-0.8,0.8l0,0h-6.2c-0.4,0-0.8-0.4-0.8-0.8
			v-0.4c0-0.4,0.3-0.8,0.8-0.8h6.2c0.4,0,0.8,0.3,0.8,0.8V275.8z M115.3,270.2H57.6v-66.9h57.7V270.2z"/>
		<path class="st2" d="M317.4,273H135.3c0,0,0,6.9,6.9,6.9h189.4c6.9,0,6.9-6.9,6.9-6.9H317.4z"/>
		<path class="st2" d="M317.4,269.1c0.3-0.6,0.4-1.3,0.4-2v-95.8c0-3-2.5-5.5-5.5-5.5H161.5c-3,0-5.5,2.5-5.5,5.5v95.8
			c0,0.7,0.2,1.4,0.4,2H317.4z M164.7,174.5h144.4v86.6H164.7V174.5z"/>
		<g id="screen">
			<g id="icon">
				<path class="st2" d="M432,272l-2.9,6.2c0,0,0.3,1.8,1.5,1.8h69.1c1.2,0,1.2-1.8,1.2-1.8L498,272H432z"/>
				<rect x="431.8" y="259" class="st2" width="66.1" height="11.6"/>
				<path class="st2" d="M564.7,106.2H360.5c-3.3,0-6,2.7-6,6l0,0v137.2c0,3.7,2.7,6.8,6,6.8h204.2c3.3,0,6-3,6-6.8V112.2
					C570.7,108.9,568,106.2,564.7,106.2L564.7,106.2z M558.1,229.3H366.5V121.1h191.6V229.3z"/>
			</g>
		</g>
		<path class="st2" d="M602.2,23.3v175.8h81.4v28h48.6v30.6h-74.5v21h195.2v-21h-74.5v-30.6H827v-28h81.4L908,23.3H602.2z
			 M706.9,213.5h-7.3v-7.3h7.3V213.5z M720.9,213.5h-7.3v-7.3h7.3V213.5z M734.9,213.5h-7.3v-7.3h7.3V213.5z M748.9,213.5h-7.3v-7.3
			h7.3V213.5z M783.9,215.5c-3.2,0-5.7-2.6-5.7-5.7c0-3.2,2.6-5.7,5.7-5.7s5.7,2.6,5.7,5.7l0,0C789.6,213,787.1,215.5,783.9,215.5
			L783.9,215.5L783.9,215.5z M803.3,212.9c-1.7,0-3.1-1.4-3.1-3.1c0-1.7,1.4-3.1,3.1-3.1l0,0c1.7,0,3.1,1.4,3.1,3.1
			C806.4,211.5,805,212.9,803.3,212.9z M833.1,186.4h-9.4H677.4l0,0h-62.5V36h216.6l64.5,0l-0.4,26.8v123.5L833.1,186.4z"/>
		<path class="st3" d="M386.5,153.1c-0.2-0.3-0.6-0.4-0.9-0.2l-0.1,0.1c-0.4,0.4-1,0.6-1.6,0.6c0.7,1.4,2.3,2,3.7,1.3
			c0.6-0.3,1-0.7,1.3-1.3c-0.6,0-1.1-0.2-1.6-0.6C387.2,152.7,386.8,152.8,386.5,153.1L386.5,153.1z M389.7,132.8
			c-3.4-1.9-10.6-0.7-12.7,6.3s-0.5,14,4.3,16.6c-1.9-5.3-0.3-14.9,7.9-16.8c3.4,1.4,6.2,3.4,6.2,4.7c-0.1,1.4-0.3,2.8-0.6,4.1
			c0,0,1.2,0.3,0.6,1.8s-1.5,1.4-1.5,1.4s-1.1,3.2-2,4.1c3.4-2,4.9-7.3,4.9-11.2S395.4,132.8,389.7,132.8L389.7,132.8z"/>
		<rect x="372.5" y="129.5" class="st1" width="179" height="90.5"/>
		<rect x="372.5" y="129.5" class="st1" width="29" height="29"/>
		<line class="st1" x1="380" y1="165.8" x2="453.5" y2="165.8"/>
		<line class="st1" x1="380" y1="173.2" x2="453.5" y2="173.2"/>
		<line class="st1" x1="380" y1="180.5" x2="453.5" y2="180.5"/>
		<line class="st1" x1="380" y1="187.8" x2="453.5" y2="187.8"/>
		<line class="st1" x1="380" y1="194.1" x2="453.5" y2="194.1"/>
		<line class="st1" x1="380" y1="200.3" x2="453.5" y2="200.3"/>
		<line class="st1" x1="380" y1="206.5" x2="453.5" y2="206.5"/>
		<line class="st1" x1="380" y1="212.7" x2="453.5" y2="212.7"/>
		<line class="st1" x1="464.1" y1="165.8" x2="537.6" y2="165.8"/>
		<line class="st1" x1="464.1" y1="173.2" x2="537.6" y2="173.2"/>
		<line class="st1" x1="464.1" y1="180.5" x2="537.6" y2="180.5"/>
		<line class="st1" x1="464.1" y1="187.8" x2="537.6" y2="187.8"/>
		<line class="st1" x1="464.1" y1="194.1" x2="537.6" y2="194.1"/>
		<line class="st1" x1="464.1" y1="200.3" x2="537.6" y2="200.3"/>
		<line class="st1" x1="464.1" y1="206.5" x2="537.6" y2="206.5"/>
		<line class="st1" x1="464.1" y1="212.7" x2="537.6" y2="212.7"/>
		<line class="st1" x1="176" y1="211" x2="232.4" y2="211"/>
		<line class="st1" x1="176" y1="217.5" x2="232.4" y2="217.5"/>
		<line class="st1" x1="176" y1="224" x2="232.4" y2="224"/>
		<line class="st1" x1="176" y1="230.5" x2="232.4" y2="230.5"/>
		<line class="st1" x1="176" y1="236.1" x2="232.4" y2="236.1"/>
		<line class="st1" x1="176" y1="241.6" x2="232.4" y2="241.6"/>
		<line class="st1" x1="176" y1="247.1" x2="232.4" y2="247.1"/>
		<line class="st1" x1="176" y1="252.7" x2="232.4" y2="252.7"/>
		<line class="st1" x1="240.5" y1="211" x2="296.9" y2="211"/>
		<line class="st1" x1="240.5" y1="217.5" x2="296.9" y2="217.5"/>
		<line class="st1" x1="240.5" y1="224" x2="296.9" y2="224"/>
		<line class="st1" x1="240.5" y1="230.5" x2="296.9" y2="230.5"/>
		<line class="st1" x1="240.5" y1="236.1" x2="296.9" y2="236.1"/>
		<line class="st1" x1="240.5" y1="241.6" x2="296.9" y2="241.6"/>
		<line class="st1" x1="240.5" y1="247.1" x2="296.9" y2="247.1"/>
		<line class="st1" x1="240.5" y1="252.7" x2="296.9" y2="252.7"/>
		<rect x="627.3" y="46.4" class="st1" width="56.2" height="56.2"/>
		<rect x="690.5" y="72.6" class="st1" width="179" height="90.5"/>
		<line class="st1" x1="698" y1="108.9" x2="771.5" y2="108.9"/>
		<line class="st1" x1="698" y1="116.3" x2="771.5" y2="116.3"/>
		<line class="st1" x1="698" y1="123.6" x2="771.5" y2="123.6"/>
		<line class="st1" x1="698" y1="130.9" x2="771.5" y2="130.9"/>
		<line class="st1" x1="698" y1="137.2" x2="771.5" y2="137.2"/>
		<line class="st1" x1="698" y1="143.4" x2="771.5" y2="143.4"/>
		<line class="st1" x1="698" y1="149.6" x2="771.5" y2="149.6"/>
		<line class="st1" x1="698" y1="155.8" x2="771.5" y2="155.8"/>
		<line class="st1" x1="782.1" y1="89.6" x2="855.6" y2="89.6"/>
		<line class="st1" x1="782.1" y1="108.9" x2="855.6" y2="108.9"/>
		<line class="st1" x1="782.1" y1="116.3" x2="855.6" y2="116.3"/>
		<line class="st1" x1="782.1" y1="123.6" x2="855.6" y2="123.6"/>
		<line class="st1" x1="782.1" y1="129.5" x2="855.6" y2="129.5"/>
		<line class="st1" x1="782.1" y1="137.2" x2="855.6" y2="137.2"/>
		<line class="st1" x1="782.1" y1="149.6" x2="855.6" y2="149.6"/>
		<line class="st1" x1="782.1" y1="144" x2="855.6" y2="144"/>
		<line class="st0" x1="698" y1="88.3" x2="855.6" y2="88.3"/>
		<line class="st0" x1="407.5" y1="151.2" x2="537.6" y2="151.2"/>
		<line class="st1" x1="782.1" y1="102.9" x2="855.6" y2="102.9"/>
		<line class="st1" x1="698" y1="102.9" x2="771.5" y2="102.9"/>
		<line class="st1" x1="782.1" y1="155.8" x2="855.6" y2="155.8"/>
		<line class="st1" x1="633.5" y1="113.1" x2="683.5" y2="113.1"/>
		<line class="st1" x1="633.5" y1="120.4" x2="683.5" y2="120.4"/>
		<line class="st1" x1="633.5" y1="127.7" x2="683.5" y2="127.7"/>
		<line class="st1" x1="633.5" y1="135.1" x2="683.5" y2="135.1"/>
		<line class="st1" x1="633.5" y1="141.3" x2="683.5" y2="141.3"/>
		<line class="st1" x1="633.5" y1="147.5" x2="683.5" y2="147.5"/>
		<line class="st1" x1="633.5" y1="153.8" x2="683.5" y2="153.8"/>
		<line class="st1" x1="633.5" y1="160" x2="683.5" y2="160"/>
		<path class="st4" d="M664.9,90.9c-2.1,1.2-3.9,4.5-5.2,5.9s-2.5-0.2-3.9-0.2s-2.6,1.5-3.9,0.2s-3.1-4.7-5.2-5.9
			c-1.7-1.2-2.9-3.1-3.3-5.2c0,4.7,2,7.6,3.9,10.1s2.2,4.4,8.5,4.4s6.7-1.9,8.5-4.4s3.9-5.4,3.9-10.1
			C667.8,87.7,666.7,89.6,664.9,90.9z M672.6,61.7C671.5,53.9,662.5,48,656,49c0,5.7-14.8,7-17.1,12.7c-3,7.4-0.5,19.5,4,20
			c0-0.5,0-1.1,0-1.6c0.7,1.6,1.8,3.1,3.3,3.5c3.1,0.8,5.8,0.3,6.7-0.5s1.3-3.7,2.8-3.7s2,2.8,2.8,3.7s3.6,1.3,6.7,0.5
			c1.5-0.4,2.6-1.9,3.3-3.5c0,0.6,0,1.1,0,1.6C673.2,81.2,673.8,69.6,672.6,61.7z M652,82.6c-1.3,0.8-4.8,0.6-6.3-0.2
			c-2.1-1.2-2-5.1-1.9-5.5c0.2-0.6,1.6-0.6,4.5-0.3s6,1.4,6,2.1C653.9,80.1,653.1,81.5,652,82.6z M665.9,82.3
			c-1.5,0.8-5.1,1-6.3,0.2c-1.2-1.1-1.9-2.5-2.2-4c0-0.7,3.2-1.8,6-2.1s4.3-0.2,4.5,0.3C668,77.2,668.1,81.2,665.9,82.3L665.9,82.3z
			 M668.7,75.6c-6.6-0.5-11.2,1-12.9,1s-6.3-1.6-12.9-1.1c0-3.4,0.1-6.5,1.1-7.4c1.5-1.5,4-3.4,6.2-3.4s3.2,1.6,5.6,1.6
			s3.3-1.6,5.6-1.6s4.7,1.9,6.2,3.4C668.6,69.2,668.7,72.2,668.7,75.6L668.7,75.6z"/>
		<rect x="170.7" y="181.2" class="st1" width="132.9" height="75"/>
		<rect x="170.7" y="181.2" class="st1" width="25.9" height="25.4"/>
		<path class="st4" d="M187,200.6c-0.9,0.5-1.6,1.9-2.2,2.4s-1.1-0.1-1.6-0.1s-1.1,0.6-1.6,0.1s-1.3-1.9-2.2-2.4
			c-0.7-0.5-1.2-1.3-1.4-2.2c0,1.5,0.6,3,1.6,4.2c0.8,1,0.9,1.8,3.6,1.8s2.8-0.8,3.6-1.8c1-1.2,1.6-2.6,1.6-4.2
			C188.2,199.4,187.7,200.1,187,200.6z M190.2,188.5c-0.5-3.3-4.2-5.7-6.9-5.3c0,2.4-6.2,2.9-7.1,5.3c-1.2,3.1-0.2,8.1,1.7,8.3
			c0-0.2,0-0.4,0-0.7c0.2,0.7,0.7,1.2,1.4,1.4c0.9,0.3,1.9,0.3,2.8-0.2c0.4-0.4,0.6-1.5,1.2-1.5s0.8,1.2,1.2,1.5
			c0.9,0.5,1.9,0.5,2.8,0.2c0.7-0.3,1.2-0.8,1.4-1.4c0,0.2,0,0.5,0,0.7C190.4,196.6,190.7,191.8,190.2,188.5L190.2,188.5z
			 M181.6,197.2c-0.9,0.3-1.8,0.3-2.6-0.1c-0.9-0.5-0.8-2.1-0.8-2.3s0.7-0.2,1.9-0.1s2.5,0.6,2.5,0.9
			C182.4,196.2,182.1,196.7,181.6,197.2L181.6,197.2z M187.4,197.1c-0.8,0.4-1.8,0.4-2.6,0.1c-0.5-0.4-0.8-1-0.9-1.7
			c0-0.3,1.3-0.8,2.5-0.9s1.8-0.1,1.9,0.1S188.3,196.6,187.4,197.1L187.4,197.1z M188.6,194.3c-1.8-0.1-3.6,0.1-5.4,0.4
			c-1.8-0.3-3.6-0.5-5.4-0.4c0-1.4,0-2.7,0.4-3.1c0.7-0.8,1.6-1.3,2.6-1.4c0.9,0,1.4,0.7,2.3,0.7s1.4-0.7,2.3-0.7
			c1,0.2,1.9,0.7,2.6,1.4C188.5,191.6,188.6,192.9,188.6,194.3L188.6,194.3z"/>
		<path class="st3" d="M84.5,228c-0.2-0.3-0.6-0.4-0.9-0.2l-0.1,0.1c-0.4,0.4-1,0.6-1.6,0.6c0.7,1.4,2.3,2,3.7,1.3
			c0.6-0.3,1-0.7,1.3-1.3c-0.6,0-1.1-0.2-1.6-0.6C85.2,227.6,84.8,227.7,84.5,228L84.5,228z M87.7,207.6c-3.4-1.9-10.6-0.7-12.7,6.3
			s-0.5,14,4.3,16.6c-1.9-5.3-0.3-14.9,7.9-16.8c3.4,1.4,6.2,3.4,6.2,4.7c-0.1,1.4-0.3,2.8-0.6,4.1c0,0,1.2,0.3,0.6,1.8
			s-1.5,1.3-1.5,1.3s-1.1,3.2-2,4.1c3.4-2,4.8-7.3,4.8-11.2S93.4,207.6,87.7,207.6L87.7,207.6z"/>
		<line class="st1" x1="57.6" y1="233.3" x2="115.3" y2="233.3"/>
		<line class="st5" x1="61.3" y1="239.5" x2="111.7" y2="239.5"/>
		<line class="st5" x1="61.3" y1="246" x2="111.7" y2="246"/>
		<line class="st5" x1="61.3" y1="252.6" x2="111.7" y2="252.6"/>
		<line class="st5" x1="61.3" y1="259.1" x2="111.7" y2="259.1"/>
		<line class="st5" x1="61.3" y1="265.6" x2="111.7" y2="265.6"/>
		<path class="st4" d="M19.3,249.3c-0.9,0.5-1.6,1.9-2.2,2.4s-1.1-0.1-1.6-0.1s-1.1,0.6-1.6,0.1s-1.3-1.9-2.2-2.4
			c-0.7-0.5-1.2-1.3-1.4-2.2c0,1.5,0.6,3,1.6,4.2c0.8,1,0.9,1.8,3.6,1.8s2.8-0.8,3.6-1.8c1-1.2,1.6-2.6,1.6-4.2
			C20.5,248,20,248.8,19.3,249.3z M22.5,237.1c-0.5-3.3-4.2-5.7-6.9-5.3c0,2.4-6.2,2.9-7.1,5.3c-1.2,3.1-0.2,8.1,1.7,8.3
			c0-0.2,0-0.4,0-0.7c0.2,0.7,0.7,1.2,1.4,1.4c0.9,0.3,1.9,0.2,2.8-0.2c0.4-0.4,0.6-1.5,1.2-1.5s0.8,1.2,1.2,1.5
			c0.9,0.5,1.9,0.5,2.8,0.2c0.7-0.3,1.2-0.8,1.4-1.4c0,0.2,0,0.5,0,0.7C22.7,245.2,23,240.4,22.5,237.1z M13.9,245.8
			c-0.9,0.3-1.8,0.3-2.6-0.1c-0.9-0.5-0.8-2.1-0.8-2.3s0.7-0.2,1.9-0.1s2.5,0.6,2.5,0.9C14.7,244.8,14.4,245.4,13.9,245.8
			L13.9,245.8z M19.7,245.7c-0.8,0.4-1.8,0.4-2.6,0.1c-0.5-0.4-0.8-1-0.9-1.7c0-0.3,1.3-0.8,2.5-0.9s1.8-0.1,1.9,0.1
			S20.6,245.2,19.7,245.7L19.7,245.7z M20.9,242.9c-1.8-0.1-3.6,0.1-5.4,0.4c-1.8-0.3-3.6-0.5-5.4-0.4c0-1.4,0-2.7,0.4-3.1
			c0.7-0.8,1.6-1.3,2.6-1.4c0.9,0,1.4,0.7,2.3,0.7s1.4-0.7,2.3-0.7c1,0.2,1.9,0.7,2.6,1.4C20.8,240.2,20.9,241.5,20.9,242.9
			L20.9,242.9z"/>
		<line class="st5" x1="5.6" y1="257.1" x2="26" y2="257.1"/>
		<line class="st5" x1="5.6" y1="263.7" x2="26" y2="263.7"/>
		<line class="st5" x1="5.6" y1="270.2" x2="26" y2="270.2"/>
	</g>
</g>
</svg>
